<svg aria-hidden="true" version="1.1" xmlns="http://www.w3.org/2000/svg" xmlns:xlink="http://www.w3.org/1999/xlink">
<defs>
<svg xmlns="http://www.w3.org/2000/svg" viewBox="0 0 256 256" id="icon-arrow-left"><path d="M128,24A104,104,0,1,0,232,128,104.11,104.11,0,0,0,128,24Zm0,192a88,88,0,1,1,88-88A88.1,88.1,0,0,1,128,216ZM149.66,93.66,115.31,128l34.35,34.34a8,8,0,0,1-11.32,11.32l-40-40a8,8,0,0,1,0-11.32l40-40a8,8,0,0,1,11.32,11.32Z"></path></svg>

<svg xmlns="http://www.w3.org/2000/svg" viewBox="0 0 256 256" id="icon-arrow-right"><path d="M128,24A104,104,0,1,0,232,128,104.11,104.11,0,0,0,128,24Zm0,192a88,88,0,1,1,88-88A88.1,88.1,0,0,1,128,216Zm29.66-93.66a8,8,0,0,1,0,11.32l-40,40a8,8,0,0,1-11.32-11.32L140.69,128,106.34,93.66a8,8,0,0,1,11.32-11.32Z"></path></svg>

<svg xmlns="http://www.w3.org/2000/svg" viewBox="0 0 256 256" id="icon-star-full"><path d="M234.5,114.38l-45.1,39.36,13.51,58.6a16,16,0,0,1-23.84,17.34l-51.11-31-51,31a16,16,0,0,1-23.84-17.34L66.61,153.8,21.5,114.38a16,16,0,0,1,9.11-28.06l59.46-5.15,23.21-55.36a15.95,15.95,0,0,1,29.44,0h0L166,81.17l59.44,5.15a16,16,0,0,1,9.11,28.06Z"></path></svg>

<svg xmlns="http://www.w3.org/2000/svg" viewBox="0 0 256 256" id="icon-star-half"><path d="M239.2,97.29a16,16,0,0,0-13.81-11L166,81.17,142.72,25.81a15.95,15.95,0,0,0-29.44,0L90.07,81.17,30.61,86.31a16,16,0,0,0-9.11,28.07L66.61,153.8,53.09,212.34a16,16,0,0,0,23.84,17.34l51-31,51.11,31a16,16,0,0,0,23.84-17.34l-13.51-58.6,45.1-39.36A16,16,0,0,0,239.2,97.29Zm-15.22,5-45.1,39.36a16,16,0,0,0-5.08,15.71L187.35,216v0l-51.07-31a15.9,15.9,0,0,0-8.27-2.32V32.09h0l23.2,55.28a16,16,0,0,0,13.35,9.75L224,102.26S224,102.32,224,102.33Z"></path></svg>

<svg xmlns="http://www.w3.org/2000/svg" viewBox="0 0 256 256" id="icon-facebook"><path d="M128,28A100,100,0,1,0,228,128,100.11,100.11,0,0,0,128,28Zm4,191.91V148h28a4,4,0,0,0,0-8H132V112a20,20,0,0,1,20-20h16a4,4,0,0,0,0-8H152a28,28,0,0,0-28,28v28H96a4,4,0,0,0,0,8h28v71.91a92,92,0,1,1,8,0Z"></path></svg>

<svg xmlns="http://www.w3.org/2000/svg" viewBox="0 0 256 256" id="icon-instagram"><path d="M128,84a44,44,0,1,0,44,44A44.05,44.05,0,0,0,128,84Zm0,80a36,36,0,1,1,36-36A36,36,0,0,1,128,164ZM176,28H80A52.06,52.06,0,0,0,28,80v96a52.06,52.06,0,0,0,52,52h96a52.06,52.06,0,0,0,52-52V80A52.06,52.06,0,0,0,176,28Zm44,148a44.05,44.05,0,0,1-44,44H80a44.05,44.05,0,0,1-44-44V80A44.05,44.05,0,0,1,80,36h96a44.05,44.05,0,0,1,44,44ZM188,76a8,8,0,1,1-8-8A8,8,0,0,1,188,76Z"></path></svg>

<svg xmlns="http://www.w3.org/2000/svg" viewBox="0 0 256 256" id="icon-tiktok"><path d="M224,76a52.06,52.06,0,0,1-52-52,4,4,0,0,0-4-4H128a4,4,0,0,0-4,4V156a24,24,0,1,1-34.28-21.69A4,4,0,0,0,92,130.69V88a4,4,0,0,0-4.7-3.94C53.49,90.08,28,121,28,156a72,72,0,0,0,144,0V109.44A99.26,99.26,0,0,0,224,124a4,4,0,0,0,4-4V80A4,4,0,0,0,224,76Zm-4,39.92a91.32,91.32,0,0,1-49.66-17.18A4,4,0,0,0,164,102v54a64,64,0,0,1-128,0c0-29.52,20.32-55.79,48-63v35.31A32,32,0,1,0,132,156V28h32.13A60.11,60.11,0,0,0,220,83.87Z"></path></svg>
</defs>
</svg>