<svg aria-hidden="true" version="1.1" xmlns="http://www.w3.org/2000/svg" xmlns:xlink="http://www.w3.org/1999/xlink">
<defs>
<svg xmlns="http://www.w3.org/2000/svg" viewBox="0 0 256 256" id="icon-location"><path d="M128,66a38,38,0,1,0,38,38A38,38,0,0,0,128,66Zm0,64a26,26,0,1,1,26-26A26,26,0,0,1,128,130Zm0-112a86.1,86.1,0,0,0-86,86c0,30.91,14.34,63.74,41.47,94.94a252.32,252.32,0,0,0,41.09,38,6,6,0,0,0,6.88,0,252.32,252.32,0,0,0,41.09-38c27.13-31.2,41.47-64,41.47-94.94A86.1,86.1,0,0,0,128,18Zm0,206.51C113,212.93,54,163.62,54,104a74,74,0,0,1,148,0C202,163.62,143,212.93,128,224.51Z"></path></svg>

<svg xmlns="http://www.w3.org/2000/svg" viewBox="0 0 256 256" id="icon-clock"><path d="M128,26A102,102,0,1,0,230,128,102.12,102.12,0,0,0,128,26Zm0,192a90,90,0,1,1,90-90A90.1,90.1,0,0,1,128,218Zm62-90a6,6,0,0,1-6,6H128a6,6,0,0,1-6-6V72a6,6,0,0,1,12,0v50h50A6,6,0,0,1,190,128Z"></path></svg>

<svg xmlns="http://www.w3.org/2000/svg" viewBox="0 0 256 256" id="icon-phone"><path d="M221.59,160.3l-47.24-21.17a14,14,0,0,0-13.28,1.22,4.81,4.81,0,0,0-.56.42l-24.69,21a1.88,1.88,0,0,1-1.68.06c-15.87-7.66-32.31-24-40-39.65a1.91,1.91,0,0,1,0-1.68l21.07-25a6.13,6.13,0,0,0,.42-.58,14,14,0,0,0,1.12-13.27L95.73,34.49a14,14,0,0,0-14.56-8.38A54.24,54.24,0,0,0,34,80c0,78.3,63.7,142,142,142a54.25,54.25,0,0,0,53.89-47.17A14,14,0,0,0,221.59,160.3ZM176,210C104.32,210,46,151.68,46,80A42.23,42.23,0,0,1,82.67,38h.23a2,2,0,0,1,1.84,1.31l21.1,47.11a2,2,0,0,1,0,1.67L84.73,113.15a4.73,4.73,0,0,0-.43.57,14,14,0,0,0-.91,13.73c8.87,18.16,27.17,36.32,45.53,45.19a14,14,0,0,0,13.77-1c.19-.13.38-.27.56-.42l24.68-21a1.92,1.92,0,0,1,1.6-.1l47.25,21.17a2,2,0,0,1,1.21,2A42.24,42.24,0,0,1,176,210Z"></path></svg>

<svg xmlns="http://www.w3.org/2000/svg" viewBox="0 0 256 256" id="icon-envelope"><path d="M224,50H32a6,6,0,0,0-6,6V192a14,14,0,0,0,14,14H216a14,14,0,0,0,14-14V56A6,6,0,0,0,224,50ZM208.58,62,128,135.86,47.42,62ZM216,194H40a2,2,0,0,1-2-2V69.64l86,78.78a6,6,0,0,0,8.1,0L218,69.64V192A2,2,0,0,1,216,194Z"></path></svg>

<svg xmlns="http://www.w3.org/2000/svg" viewBox="0 0 256 256" id="icon-close"><path d="M205.66,194.34a8,8,0,0,1-11.32,11.32L128,139.31,61.66,205.66a8,8,0,0,1-11.32-11.32L116.69,128,50.34,61.66A8,8,0,0,1,61.66,50.34L128,116.69l66.34-66.35a8,8,0,0,1,11.32,11.32L139.31,128Z"></path></svg>

<svg xmlns="http://www.w3.org/2000/svg" viewBox="0 0 256 256" id="icon-arrow-left"><path d="M128,24A104,104,0,1,0,232,128,104.11,104.11,0,0,0,128,24Zm0,192a88,88,0,1,1,88-88A88.1,88.1,0,0,1,128,216ZM149.66,93.66,115.31,128l34.35,34.34a8,8,0,0,1-11.32,11.32l-40-40a8,8,0,0,1,0-11.32l40-40a8,8,0,0,1,11.32,11.32Z"></path></svg>

<svg xmlns="http://www.w3.org/2000/svg" viewBox="0 0 256 256" id="icon-arrow-right"><path d="M128,24A104,104,0,1,0,232,128,104.11,104.11,0,0,0,128,24Zm0,192a88,88,0,1,1,88-88A88.1,88.1,0,0,1,128,216Zm29.66-93.66a8,8,0,0,1,0,11.32l-40,40a8,8,0,0,1-11.32-11.32L140.69,128,106.34,93.66a8,8,0,0,1,11.32-11.32Z"></path></svg>

<svg xmlns="http://www.w3.org/2000/svg" viewBox="0 0 256 256" id="icon-star-full"><path d="M234.5,114.38l-45.1,39.36,13.51,58.6a16,16,0,0,1-23.84,17.34l-51.11-31-51,31a16,16,0,0,1-23.84-17.34L66.61,153.8,21.5,114.38a16,16,0,0,1,9.11-28.06l59.46-5.15,23.21-55.36a15.95,15.95,0,0,1,29.44,0h0L166,81.17l59.44,5.15a16,16,0,0,1,9.11,28.06Z"></path></svg>

<svg xmlns="http://www.w3.org/2000/svg" viewBox="0 0 256 256" id="icon-star-half"><path d="M239.2,97.29a16,16,0,0,0-13.81-11L166,81.17,142.72,25.81a15.95,15.95,0,0,0-29.44,0L90.07,81.17,30.61,86.31a16,16,0,0,0-9.11,28.07L66.61,153.8,53.09,212.34a16,16,0,0,0,23.84,17.34l51-31,51.11,31a16,16,0,0,0,23.84-17.34l-13.51-58.6,45.1-39.36A16,16,0,0,0,239.2,97.29Zm-15.22,5-45.1,39.36a16,16,0,0,0-5.08,15.71L187.35,216v0l-51.07-31a15.9,15.9,0,0,0-8.27-2.32V32.09h0l23.2,55.28a16,16,0,0,0,13.35,9.75L224,102.26S224,102.32,224,102.33Z"></path></svg>

<svg xmlns="http://www.w3.org/2000/svg" viewBox="0 0 256 256" id="icon-facebook"><path d="M128,28A100,100,0,1,0,228,128,100.11,100.11,0,0,0,128,28Zm4,191.91V148h28a4,4,0,0,0,0-8H132V112a20,20,0,0,1,20-20h16a4,4,0,0,0,0-8H152a28,28,0,0,0-28,28v28H96a4,4,0,0,0,0,8h28v71.91a92,92,0,1,1,8,0Z"></path></svg>

<svg xmlns="http://www.w3.org/2000/svg" viewBox="0 0 256 256" id="icon-instagram"><path d="M128,84a44,44,0,1,0,44,44A44.05,44.05,0,0,0,128,84Zm0,80a36,36,0,1,1,36-36A36,36,0,0,1,128,164ZM176,28H80A52.06,52.06,0,0,0,28,80v96a52.06,52.06,0,0,0,52,52h96a52.06,52.06,0,0,0,52-52V80A52.06,52.06,0,0,0,176,28Zm44,148a44.05,44.05,0,0,1-44,44H80a44.05,44.05,0,0,1-44-44V80A44.05,44.05,0,0,1,80,36h96a44.05,44.05,0,0,1,44,44ZM188,76a8,8,0,1,1-8-8A8,8,0,0,1,188,76Z"></path></svg>

<svg xmlns="http://www.w3.org/2000/svg" viewBox="0 0 256 256" id="icon-tiktok"><path d="M224,76a52.06,52.06,0,0,1-52-52,4,4,0,0,0-4-4H128a4,4,0,0,0-4,4V156a24,24,0,1,1-34.28-21.69A4,4,0,0,0,92,130.69V88a4,4,0,0,0-4.7-3.94C53.49,90.08,28,121,28,156a72,72,0,0,0,144,0V109.44A99.26,99.26,0,0,0,224,124a4,4,0,0,0,4-4V80A4,4,0,0,0,224,76Zm-4,39.92a91.32,91.32,0,0,1-49.66-17.18A4,4,0,0,0,164,102v54a64,64,0,0,1-128,0c0-29.52,20.32-55.79,48-63v35.31A32,32,0,1,0,132,156V28h32.13A60.11,60.11,0,0,0,220,83.87Z"></path></svg>
</defs>
</svg>